<?xml version="1.0" standalone="no"?>
<!DOCTYPE svg PUBLIC "-//W3C//DTD SVG 20010904//EN"
 "http://www.w3.org/TR/2001/REC-SVG-20010904/DTD/svg10.dtd">
<svg version="1.0" xmlns="http://www.w3.org/2000/svg"
 width="400.000000pt" height="400.000000pt" viewBox="0 0 400.000000 400.000000"
 preserveAspectRatio="xMidYMid meet">

<g transform="translate(0.000000,400.000000) scale(0.100000,-0.100000)"
fill="#000000" stroke="none">
<path d="M2380 2611 c-276 -92 -416 -142 -418 -152 -2 -12 83 -277 92 -286 1
-2 25 4 52 11 91 27 207 57 208 54 2 -3 95 -293 223 -698 36 -113 67 -208 69
-212 3 -4 24 1 47 11 23 11 89 39 145 64 57 25 108 49 113 54 4 4 -45 193
-112 423 -66 228 -122 429 -125 446 -6 31 -6 32 72 61 44 17 96 36 117 44 20
7 37 17 37 21 0 6 -54 204 -76 281 -3 9 -11 17 -17 16 -7 0 -199 -63 -427
-138z"/>
<path d="M925 2449 c-143 -49 -281 -98 -306 -109 -26 -11 -94 -36 -150 -56
-57 -20 -116 -45 -131 -56 -35 -24 -52 -78 -45 -142 5 -42 295 -1238 343
-1413 12 -44 18 -53 37 -53 31 0 329 90 344 104 9 8 8 27 -3 81 -57 265 -74
353 -74 376 0 25 9 29 153 83 85 31 157 56 160 56 4 0 7 -5 7 -11 0 -11 23
-84 115 -373 17 -55 38 -104 46 -109 10 -6 75 10 205 52 105 33 197 61 204 61
16 0 14 10 -55 225 -32 99 -74 234 -95 300 -21 66 -75 237 -120 380 -45 143
-101 321 -125 396 -23 74 -45 141 -49 147 -14 22 -175 152 -188 151 -7 0 -130
-40 -273 -90z m165 -603 c33 -103 60 -193 60 -201 0 -8 -7 -15 -16 -15 -9 0
-75 -14 -146 -31 -72 -16 -132 -29 -133 -27 -2 2 -22 84 -45 182 -45 198 -47
184 30 213 25 9 76 29 115 44 38 15 71 26 73 25 1 -2 29 -87 62 -190z"/>
<path d="M3115 2486 c-77 -29 -175 -65 -217 -80 -74 -26 -78 -30 -89 -67 -11
-34 -8 -53 29 -186 72 -258 69 -249 108 -274 40 -24 31 -25 267 19 169 32 156
37 177 -61 14 -62 15 -62 -17 -71 -18 -6 -21 -4 -16 15 6 20 3 22 -30 16 -29
-4 -38 -2 -50 16 -15 21 -16 21 -33 5 -22 -21 -14 -31 39 -48 21 -7 35 -15 32
-18 -6 -7 -89 -33 -90 -29 0 1 -11 24 -24 50 -16 35 -27 46 -39 43 -126 -36
-192 -59 -192 -65 0 -26 44 -220 55 -241 22 -43 62 -73 87 -67 74 17 366 113
451 148 71 29 81 37 100 75 l20 43 -32 123 c-53 205 -69 244 -114 292 l-42 45
-180 -39 c-99 -22 -183 -40 -186 -40 -10 0 -33 130 -24 138 3 4 37 19 73 34
l67 26 18 -23 c52 -69 43 -67 133 -34 60 23 85 37 97 58 16 28 15 32 -24 140
l-41 111 -87 -1 c-78 0 -98 -5 -226 -53z"/>
<path d="M2150 2068 c-58 -22 -107 -42 -109 -44 -7 -6 15 -85 60 -226 22 -66
38 -122 36 -124 -1 -2 -67 66 -145 150 l-142 154 -121 -38 c-66 -21 -123 -40
-125 -43 -2 -2 6 -37 20 -78 13 -41 38 -121 55 -179 113 -369 202 -650 205
-650 7 0 208 89 214 94 3 3 -8 52 -23 108 -15 57 -38 141 -51 188 -12 47 -26
94 -30 105 -8 20 81 -71 251 -256 l88 -97 96 35 c53 19 99 37 102 41 4 4 -22
111 -58 237 -35 127 -84 304 -109 395 -76 275 -74 270 -92 269 -9 0 -64 -18
-122 -41z"/>
</g>
</svg>
