<?xml version="1.0" standalone="no"?>
<!DOCTYPE svg PUBLIC "-//W3C//DTD SVG 20010904//EN"
 "http://www.w3.org/TR/2001/REC-SVG-20010904/DTD/svg10.dtd">
<svg version="1.0" xmlns="http://www.w3.org/2000/svg"
 width="500.000000pt" height="500.000000pt" viewBox="0 0 500.000000 500.000000"
 preserveAspectRatio="xMidYMid meet">

<g transform="translate(0.000000,500.000000) scale(0.100000,-0.100000)"
fill="#000000" stroke="none">
<path d="M2398 4933 c-8 -10 -30 -43 -49 -73 -19 -30 -71 -101 -117 -159 -163
-204 -252 -361 -287 -509 -24 -100 -17 -280 15 -372 29 -86 99 -202 160 -268
28 -29 50 -59 50 -68 0 -9 -9 -50 -19 -92 -11 -43 -22 -101 -26 -130 -6 -43
-15 -63 -52 -105 -63 -74 -107 -167 -99 -209 7 -39 120 -167 196 -223 51 -38
64 -65 31 -65 -62 0 -160 -96 -184 -180 -18 -60 -25 -63 -64 -29 -45 39 -72
49 -138 49 -91 0 -112 -19 -45 -39 77 -23 102 -111 48 -169 -38 -40 -87 -67
-226 -122 -130 -51 -199 -93 -255 -154 -80 -88 -122 -199 -111 -296 18 -171
95 -277 260 -359 69 -34 175 -56 239 -49 24 3 48 3 53 -1 6 -4 7 -32 3 -71 -8
-87 -4 -109 24 -120 21 -8 24 -17 30 -97 4 -48 7 -92 8 -98 2 -18 -14 -55 -24
-55 -5 0 -18 -15 -29 -33 -17 -27 -20 -50 -20 -139 0 -98 -2 -108 -22 -122
-19 -14 -21 -24 -22 -125 -1 -60 2 -105 5 -99 4 6 37 5 95 -5 49 -8 107 -15
129 -16 22 -1 114 -8 205 -16 176 -16 452 -19 485 -6 39 16 62 -18 33 -48 -11
-10 -9 -11 5 -5 24 9 21 81 -3 75 -8 -2 -60 -8 -115 -13 -107 -10 -382 4 -429
22 -26 9 -26 12 -20 62 8 65 39 162 66 205 12 20 32 37 51 42 29 8 29 9 7 10
-14 0 -50 -6 -80 -15 -108 -31 -110 -31 -110 10 0 47 -22 56 -52 21 -24 -28
-58 -27 -58 2 0 11 -4 13 -12 5 -7 -5 -33 -9 -56 -9 -35 1 -48 -3 -63 -22
l-19 -23 0 81 c0 55 5 92 16 112 15 29 16 30 37 15 54 -39 61 -35 43 24 -7 25
-16 82 -20 128 l-7 82 109 0 c79 0 112 -4 115 -12 4 -8 6 -7 6 3 1 18 21 29
51 29 29 0 40 31 40 117 0 86 8 103 50 103 21 0 35 -12 63 -53 20 -28 57 -74
82 -100 42 -43 50 -47 80 -41 27 5 38 1 65 -23 l32 -29 -23 -44 c-12 -25 -36
-62 -52 -83 -27 -35 -33 -38 -75 -35 l-46 3 -8 -39 c-5 -21 -22 -57 -38 -80
-28 -37 -29 -41 -13 -48 29 -12 78 -57 70 -64 -3 -4 -17 0 -31 9 -22 15 -24
15 -29 -3 -3 -11 -2 -20 1 -21 67 -7 136 -26 184 -50 56 -28 128 -107 160
-174 15 -33 28 -52 28 -42 0 9 2 17 4 17 2 0 52 -24 110 -54 128 -66 211 -93
232 -75 8 6 21 37 30 67 46 155 -35 330 -186 405 -54 26 -157 57 -193 57 -16
0 -17 5 -11 47 6 39 15 56 52 90 l45 42 -6 58 c-4 40 -20 85 -51 148 -42 83
-44 91 -31 112 23 35 19 45 -45 108 -57 56 -72 86 -50 100 5 3 7 27 5 53 -2
26 -5 58 -7 72 -1 14 -1 53 0 88 2 62 3 63 36 77 19 8 37 19 41 25 14 22 59 9
101 -30 38 -35 49 -40 92 -40 34 0 57 -6 75 -20 26 -21 57 -27 57 -11 0 5 19
11 42 15 35 6 45 3 67 -17 41 -39 64 -46 153 -53 76 -6 86 -4 117 17 42 29 68
71 87 141 33 126 -2 275 -79 332 -24 17 -43 21 -115 21 -77 0 -92 -3 -134 -28
-44 -26 -53 -27 -173 -27 -142 0 -164 -7 -214 -67 l-31 -38 -20 24 c-11 13
-44 40 -73 61 l-52 38 0 113 c-1 130 -14 176 -46 156 -16 -10 -19 -24 -19 -84
0 -49 -7 -90 -21 -128 -20 -55 -21 -55 -62 -55 -25 0 -54 -8 -72 -20 -23 -15
-47 -20 -98 -20 -84 0 -103 10 -117 58 -15 57 -13 76 22 149 19 40 34 90 36
122 l5 54 58 -6 c33 -3 59 -4 59 -2 0 10 -124 37 -176 39 l-62 1 13 25 c18 34
54 66 88 79 35 13 107 14 127 1 24 -15 6 -21 -29 -9 -33 12 -81 5 -81 -11 0
-6 14 -10 30 -10 68 0 166 -78 193 -152 16 -45 67 7 67 69 0 36 3 41 17 36 17
-7 17 -6 0 20 -9 14 -17 37 -18 49 -1 21 -2 20 -14 -7 -7 -16 -18 -60 -25 -97
l-14 -68 -36 66 c-39 70 -43 117 -11 133 28 15 89 22 96 12 3 -6 14 -2 27 11
18 18 28 20 92 14 139 -14 284 -50 344 -86 31 -19 33 -25 44 -129 4 -32 41
-58 111 -76 69 -18 180 -20 210 -4 11 7 49 11 84 10 56 -1 66 1 89 24 23 23
25 32 20 68 -4 23 -10 69 -15 102 -11 81 -17 93 -65 117 -70 36 -155 97 -224
163 l-67 63 18 36 c29 63 24 84 -30 107 l-46 20 6 118 c9 156 5 162 -83 132
-77 -27 -96 -18 -123 59 -20 57 -15 70 30 70 39 0 53 10 47 35 -3 14 1 34 12
51 18 26 18 27 -4 42 -29 19 -28 33 4 63 40 37 113 155 161 257 82 174 206
582 214 702 3 59 0 70 -21 70 -14 0 -27 -15 -44 -49 -34 -66 -106 -142 -250
-265 -307 -262 -416 -429 -434 -665 l-7 -86 -52 -3 c-49 -3 -53 -1 -68 27 -9
18 -23 31 -35 31 -37 0 -35 25 12 185 22 78 23 91 24 465 0 333 2 392 17 439
23 74 22 126 -3 151 -25 25 -42 25 -62 3z m62 -71 c0 -15 -7 -49 -15 -77 -17
-56 -20 -205 -9 -475 7 -190 -10 -353 -51 -485 -14 -44 -25 -90 -25 -102 0
-31 -18 -38 -41 -17 -19 18 -21 17 -44 -11 -13 -17 -25 -28 -28 -25 -14 15
-59 169 -68 237 -14 95 -6 257 16 344 23 93 41 137 121 300 90 184 121 266
106 281 -9 9 -17 -2 -34 -43 -12 -30 -52 -114 -90 -188 -128 -249 -156 -335
-165 -511 -9 -179 21 -318 103 -479 32 -62 81 -127 90 -118 2 2 -5 25 -17 51
-16 36 -19 57 -14 89 7 38 8 39 21 22 8 -10 14 -30 14 -43 0 -36 24 -21 30 18
7 46 26 49 34 5 4 -19 11 -35 16 -35 15 0 12 -31 -5 -64 -8 -15 -15 -33 -15
-39 0 -22 40 29 53 68 13 38 17 40 58 43 64 5 267 -18 278 -32 5 -6 21 -51 37
-101 39 -128 57 -155 107 -155 34 0 35 -14 2 -36 -31 -20 -31 -34 -2 -104 56
-137 283 -380 422 -453 l30 -15 -28 -11 c-39 -15 -88 -14 -187 5 -68 13 -90
22 -110 43 -152 167 -380 241 -595 195 -67 -14 -193 -33 -245 -37 -20 -2 -25
2 -23 18 1 11 0 14 -3 8 -3 -7 -18 -14 -32 -14 l-27 -1 30 -9 c28 -8 28 -8 -5
-3 -19 2 -45 5 -58 4 -13 0 -30 7 -38 15 -9 8 -22 15 -30 15 -18 0 -17 28 1
60 8 14 15 36 15 50 1 25 1 25 10 2 10 -23 4 -52 -10 -52 -4 0 -10 -11 -12
-25 -3 -14 -1 -25 3 -25 5 0 9 8 9 18 0 9 7 25 15 35 13 18 14 18 18 0 2 -10
2 -7 0 7 -15 89 -16 93 -3 85 10 -6 12 -3 6 11 -4 10 -4 15 0 11 4 -4 13 2 21
13 19 27 42 25 53 -4 10 -27 60 -34 60 -9 0 19 -25 67 -44 82 -9 8 -16 19 -16
25 0 6 5 4 10 -4 8 -13 10 -12 10 3 0 9 5 17 10 17 6 0 10 5 10 11 0 8 -4 9
-13 0 -18 -14 -30 -2 -15 16 6 8 13 37 14 65 1 28 7 54 14 58 6 4 11 10 11 14
0 3 2 12 5 20 5 12 10 13 25 3 15 -9 22 -8 35 5 15 14 12 18 -28 46 -45 31
-128 115 -128 130 0 5 -11 22 -24 37 -23 27 -66 127 -66 154 0 7 -7 19 -15 27
-8 8 -12 21 -9 29 4 8 1 15 -6 15 -6 0 -10 10 -9 23 2 12 -1 28 -6 36 -5 9 -5
16 2 18 13 5 5 43 -8 43 -5 0 -8 19 -8 43 l2 42 6 -35 c6 -33 7 -34 14 -10 10
38 8 50 -9 50 -9 0 -12 5 -8 11 6 11 10 28 18 99 2 14 8 38 15 53 6 16 11 35
11 43 0 8 5 12 10 9 6 -3 10 4 10 17 0 13 4 29 9 36 12 20 21 -33 11 -67 -5
-14 -9 -20 -9 -12 -1 11 -5 10 -15 -4 -8 -11 -12 -24 -9 -28 3 -5 9 -3 14 4 7
11 9 10 9 -3 0 -9 -4 -19 -9 -22 -5 -4 -7 -20 -4 -37 2 -17 -1 -36 -7 -44 -12
-14 -7 -88 11 -189 19 -106 90 -279 138 -336 31 -38 25 -12 -18 81 -89 192
-104 355 -55 609 14 74 29 147 34 163 5 15 6 27 4 27 -4 0 -54 -104 -67 -140
-4 -12 -6 -12 -6 2 -1 9 -4 18 -8 21 -5 2 -2 2 5 1 7 -2 12 2 11 9 -3 24 1 38
10 33 5 -3 11 7 14 23 4 16 20 45 36 64 17 19 28 37 24 41 -3 3 1 6 10 6 10 0
17 7 17 15 0 8 4 15 9 15 5 0 12 11 15 24 3 13 13 27 22 30 15 6 15 4 3 -11
-13 -16 -12 -17 4 -4 10 8 16 20 13 26 -6 16 47 68 59 58 5 -5 4 -1 -3 8 -10
14 -10 18 3 23 11 4 14 2 9 -6 -5 -7 -3 -8 5 -4 7 5 10 15 7 23 -3 8 -1 11 4
8 6 -3 10 3 10 15 0 11 11 32 25 46 13 13 25 28 26 32 9 35 12 41 20 36 5 -3
9 2 9 11 0 13 4 14 20 5 13 -7 20 -21 20 -38z m806 -414 c-103 -386 -222 -650
-358 -794 -28 -30 -48 -57 -45 -61 4 -3 13 0 21 6 11 9 20 10 35 1 17 -9 19
-15 11 -30 -6 -11 -16 -20 -22 -20 -6 0 -8 -11 -5 -26 4 -23 2 -25 -30 -22
-32 3 -36 7 -51 52 -19 55 -24 59 -104 77 -32 7 -58 16 -58 21 0 5 -12 8 -27
6 -27 -3 -28 -1 -29 40 -1 23 2 42 7 42 13 0 20 -18 9 -25 -14 -9 -12 -45 3
-45 8 0 12 16 13 45 0 34 -3 44 -13 41 -7 -3 -13 -1 -13 4 0 6 3 10 8 10 6 0
12 33 15 88 1 12 4 22 8 22 4 0 10 14 14 30 6 27 39 57 57 52 13 -3 20 39 8
53 -13 15 3 30 21 19 8 -4 9 1 4 15 -9 30 22 66 42 50 7 -6 13 -8 13 -3 0 5 4
2 10 -6 5 -8 13 -11 17 -6 4 5 2 11 -4 13 -7 3 -13 12 -14 21 0 14 -2 13 -9
-3 -10 -22 -13 -5 -4 19 3 9 12 12 22 9 11 -5 14 -2 9 10 -3 9 -1 19 5 23 7 4
8 3 4 -4 -10 -16 5 -15 27 2 13 10 15 15 5 19 -19 6 20 47 46 47 17 0 18 2 6
10 -13 8 -12 10 3 10 10 0 15 5 12 10 -10 16 7 12 27 -7 10 -9 21 -13 25 -9 4
4 1 11 -7 17 -12 7 -11 10 8 15 18 5 20 9 10 21 -10 12 -8 18 12 34 14 10 31
19 38 19 6 0 12 5 12 11 0 5 5 7 10 4 6 -3 10 -1 10 4 0 6 5 11 11 11 5 0 7
-4 4 -10 -3 -5 -3 -10 0 -10 3 0 13 16 21 35 8 19 19 35 25 35 5 0 8 3 6 8 -2
4 4 15 15 25 10 10 18 12 18 5 0 -17 11 -3 14 19 2 10 11 17 20 17 8 -1 13 2
10 7 -3 5 2 16 10 25 9 8 16 22 16 30 0 8 5 12 10 9 6 -4 14 8 18 27 7 31 7
30 10 -19 2 -32 -6 -87 -22 -145z m-287 -154 c-6 -7 -15 -11 -20 -8 -5 3 -3
11 4 18 16 18 31 8 16 -10z m-275 -318 c-24 -18 -29 -14 -14 14 9 16 15 19 23
11 8 -8 6 -15 -9 -25z m342 -633 c19 -25 18 -63 -1 -63 -9 0 -29 -14 -45 -30
-17 -17 -30 -26 -30 -20 0 5 -4 10 -10 10 -5 0 -7 -8 -4 -17 5 -14 4 -15 -4
-4 -12 17 -4 43 11 34 6 -3 7 -1 3 5 -8 13 8 47 37 80 25 27 26 27 43 5z m1
-144 c-1 -28 -5 -38 -14 -35 -16 6 -17 -18 -2 -46 13 -24 7 -32 -20 -23 -33
10 -36 47 -6 104 29 59 45 59 42 0z m56 -159 c9 -11 12 -20 6 -20 -5 0 -7 -5
-4 -11 4 -6 -2 -5 -14 3 -12 7 -21 18 -21 25 0 6 -6 14 -12 16 -7 3 -4 6 7 6
11 1 28 -8 38 -19z m-378 -120 c22 -6 58 -18 80 -27 112 -47 255 -166 255
-213 1 -41 35 -105 71 -133 39 -29 117 -57 159 -57 34 0 44 -12 36 -46 -13
-50 -97 -66 -196 -39 -30 9 -66 18 -80 21 -35 7 -57 33 -63 74 -21 152 -28
172 -65 188 -15 6 -51 26 -80 43 -72 42 -155 64 -311 84 -237 30 -193 7 64
-34 137 -21 218 -49 277 -94 47 -36 66 -67 28 -47 -39 21 -112 39 -230 56
-102 15 -132 15 -256 4 l-142 -13 -43 25 c-44 26 -176 145 -168 152 2 2 32 -1
66 -7 41 -7 65 -16 68 -26 7 -24 43 -43 66 -36 11 4 18 13 15 20 -3 8 6 15 25
19 36 7 38 23 4 32 -29 7 -59 -12 -50 -33 3 -9 0 -13 -7 -11 -7 3 -13 15 -13
29 0 33 58 62 93 46 18 -8 25 -8 31 2 21 34 263 47 366 21z m755 -431 c0 -42
-32 -69 -79 -69 -45 0 -51 5 -44 40 3 18 19 33 51 51 53 29 72 23 72 -22z
m-1322 -62 c4 -43 -18 -87 -110 -225 -69 -103 -69 -104 -106 -99 -20 2 -30 2
-21 0 9 -2 45 -30 81 -62 49 -43 76 -60 106 -65 23 -3 44 -10 47 -16 4 -7 -34
-90 -50 -108 -1 -1 -23 7 -49 18 -26 11 -59 20 -73 20 -53 0 -130 32 -147 60
-28 48 -17 136 19 162 6 4 7 8 3 8 -4 0 2 17 14 38 11 20 37 66 56 102 73 134
125 203 167 220 31 13 59 -11 63 -53z m-228 18 c17 -16 30 -35 30 -42 0 -8
-16 -38 -35 -68 -19 -30 -45 -78 -57 -107 -35 -80 -37 -82 -126 -137 -98 -61
-127 -85 -153 -127 -35 -58 -22 -116 40 -172 35 -31 59 -35 152 -30 43 3 79 3
79 1 0 -3 -6 -14 -12 -26 -7 -12 -14 -42 -14 -67 -3 -90 -31 -233 -49 -246 -9
-7 -14 -17 -11 -22 4 -6 -9 -9 -31 -7 -32 2 -33 2 -8 -4 23 -4 31 -12 32 -31
1 -14 0 -19 -3 -12 -4 7 -26 12 -60 12 -34 0 -53 4 -49 10 3 6 1 10 -4 10 -6
0 -11 -7 -11 -15 0 -11 13 -15 53 -16 51 -2 52 -2 12 -8 -36 -6 -68 -1 -115
16 -8 4 -24 5 -35 5 -18 -2 -17 -1 3 8 32 14 27 20 -8 10 -18 -5 -32 -5 -36 1
-3 5 -10 7 -15 4 -5 -4 -9 -2 -9 3 0 5 -16 17 -35 26 -19 9 -35 19 -35 22 0 3
4 3 9 0 11 -7 8 21 -4 31 -4 4 -5 2 -1 -4 17 -29 -24 -10 -70 32 -38 36 -45
48 -35 58 10 10 11 8 5 -8 -4 -11 -4 -17 0 -14 14 13 14 45 -1 64 -14 19 -14
19 -8 -7 4 -17 3 -28 -3 -28 -14 0 -45 69 -38 86 3 8 0 14 -6 14 -7 0 -7 4 1
14 9 11 8 15 -4 20 -12 4 -15 20 -14 70 1 50 5 63 16 59 16 -6 22 -29 26 -103
2 -31 4 -21 3 23 -1 44 -6 81 -12 85 -6 4 -9 16 -7 27 2 11 5 26 5 33 2 15 14
16 23 2 3 -5 1 -10 -5 -10 -6 0 -8 -5 -4 -11 4 -7 10 -7 16 -1 6 6 5 17 -2 29
-11 16 -8 26 15 61 15 23 31 39 36 36 5 -3 9 2 9 10 0 15 12 21 34 17 5 -1 6
5 3 14 -9 21 9 19 23 -2 9 -15 10 -14 4 6 -4 15 -2 21 4 17 6 -3 12 -2 14 3 5
14 58 25 58 12 0 -6 -6 -11 -13 -11 -7 0 -22 -7 -33 -16 -18 -14 -18 -15 4 -4
12 6 28 10 35 9 35 -4 40 1 21 22 -13 14 -26 18 -44 14 -18 -4 -21 -3 -10 4 9
5 22 11 30 13 8 2 21 9 28 16 7 6 19 12 25 12 7 0 6 -4 -3 -10 -9 -6 -10 -10
-3 -10 6 0 15 5 18 10 4 6 11 8 16 5 5 -4 9 -1 9 6 0 7 3 9 7 6 3 -4 12 -2 20
4 10 9 13 8 13 -5 0 -10 5 -14 10 -11 6 3 10 1 10 -6 0 -7 3 -10 6 -7 3 4 0
17 -7 30 l-12 23 22 -20 c12 -11 21 -15 20 -10 -4 19 13 45 31 45 11 0 22 5
25 11 5 6 12 4 22 -8 8 -10 12 -13 8 -6 -3 7 7 19 24 28 16 8 33 20 37 27 4 6
-3 4 -17 -5 -38 -27 -46 -19 -9 8 19 14 40 23 47 21 8 -3 10 1 6 11 -5 12 -3
14 7 8 10 -6 12 -4 7 7 -3 9 -3 19 1 22 3 4 6 30 7 59 0 40 -4 56 -20 70 -11
10 -14 15 -6 11 9 -5 12 -3 7 4 -4 7 -13 12 -21 12 -8 0 -16 4 -19 9 -3 4 15
7 40 6 34 -2 52 -9 74 -30z m606 -194 c-6 -89 -10 -101 -28 -83 -8 8 -8 23 1
56 6 25 11 71 12 103 0 50 2 54 11 33 6 -15 8 -60 4 -109z m-443 -129 c-31 -4
-32 -3 -26 31 l6 29 23 -29 22 -28 -25 -3z m1134 26 c-50 -115 -57 -137 -57
-203 0 -42 -5 -76 -12 -83 -7 -7 -31 -12 -55 -12 -60 0 -78 29 -70 110 13 116
81 199 166 200 23 0 31 -4 28 -12z m-1415 -64 c-7 -42 -3 -124 8 -143 6 -11
24 -28 40 -36 32 -17 49 -59 33 -84 -17 -28 -76 -50 -136 -51 -94 0 -142 28
-167 101 -24 66 20 128 142 201 65 40 85 43 80 12z m493 -14 c4 -6 -7 -23 -24
-39 -19 -18 -31 -39 -31 -55 0 -32 -13 -33 -75 -6 -26 11 -57 20 -70 20 -25 0
-104 58 -104 78 -1 16 294 18 304 2z m-115 -164 c0 -11 -19 -15 -25 -6 -3 5 1
10 9 10 9 0 16 -2 16 -4z m324 -28 c7 -18 12 -34 11 -36 -1 -1 -19 14 -39 33
-37 35 -37 35 -12 35 20 0 29 -8 40 -32z m-79 -1 c22 -12 46 -36 55 -52 18
-36 40 -60 40 -46 0 6 7 11 15 11 23 0 18 -16 -10 -34 -23 -15 -26 -15 -45 4
-11 11 -20 29 -20 40 0 19 -52 55 -63 44 -3 -3 1 -24 9 -47 13 -35 13 -43 0
-55 -19 -19 -34 -8 -44 30 -10 38 -32 50 -31 16 0 -12 4 -32 8 -43 10 -23 -4
-45 -28 -45 -11 0 -23 18 -35 55 -11 30 -23 52 -28 49 -11 -7 -10 11 4 57 l11
39 61 0 c45 0 72 -6 101 -23z m-423 -84 c26 3 49 3 49 -1 6 -26 6 -72 1 -72
-20 0 -142 66 -142 77 0 11 4 11 22 2 12 -7 41 -9 70 -6z m196 -14 c19 1 21
-3 16 -25 -5 -19 0 -32 22 -55 32 -34 53 -36 103 -11 90 46 110 54 122 47 6
-5 24 -8 39 -7 29 1 40 -17 40 -65 0 -31 -30 -37 -164 -30 -111 5 -250 35
-293 62 -18 12 -20 20 -13 48 11 53 15 55 62 45 24 -5 53 -9 66 -9z m-173 -93
c20 -14 15 -46 -8 -46 -24 0 -51 26 -44 44 8 20 27 21 52 2z m94 -32 c27 -6
31 -10 31 -40 0 -39 -6 -41 -55 -17 -37 17 -39 21 -29 47 7 18 9 18 53 10z
m-58 -75 c52 -27 120 -57 150 -67 44 -15 55 -23 57 -44 4 -32 -35 -135 -54
-142 -17 -6 -19 -2 -34 76 -13 64 -46 108 -36 47 12 -78 17 -195 11 -265 l-7
-74 -128 0 c-107 0 -130 3 -141 17 -10 12 -14 48 -13 132 0 100 4 126 28 191
41 114 40 110 22 110 -19 0 -20 19 -4 55 14 31 19 30 149 -36z m212 31 c4 -4
10 -23 14 -43 5 -32 3 -37 -14 -37 -12 0 -37 7 -57 15 -29 12 -36 21 -36 43 0
16 3 32 7 35 8 8 74 -2 86 -13z m108 -10 c28 0 29 -2 29 -45 0 -44 -1 -45 -32
-45 -44 0 -54 9 -61 52 -6 40 0 51 21 43 7 -3 27 -5 43 -5z m123 -14 c-3 -8 0
-24 6 -36 14 -26 12 -28 -27 -36 -27 -5 -31 -3 -41 25 -16 44 -6 61 34 61 25
0 32 -4 28 -14z m56 5 c0 -6 -4 -13 -10 -16 -5 -3 -10 1 -10 9 0 9 5 16 10 16
6 0 10 -4 10 -9z m-22 -123 c-2 -17 -12 -24 -38 -29 -40 -8 -106 -32 -116 -42
-17 -17 -24 -4 -18 31 4 20 9 39 11 42 3 3 37 8 76 11 40 3 76 6 80 7 5 1 7
-8 5 -20z m-202 -19 c-9 -45 -35 -97 -53 -103 -10 -4 -13 -2 -10 6 2 7 12 39
21 71 11 39 22 57 33 57 12 0 14 -7 9 -31z m325 -233 c1 -6 1 -16 0 -22 -1 -6
6 -17 14 -24 8 -7 18 -30 21 -51 4 -21 10 -36 14 -34 5 3 10 -15 12 -40 4 -51
1 -55 -12 -22 -7 17 -9 18 -9 5 -1 -12 -9 -18 -24 -18 -29 0 -47 18 -39 39 5
14 4 14 -11 2 -9 -7 -18 -11 -18 -7 -1 3 -3 11 -4 16 -1 6 -3 13 -4 18 -1 4
-5 1 -9 -6 -6 -9 -14 -7 -30 9 -12 11 -19 25 -16 31 4 6 3 8 -3 5 -6 -4 -14 0
-17 9 -4 12 -2 15 9 10 8 -3 14 -2 12 2 -4 13 47 56 70 58 16 2 21 -1 17 -9
-4 -7 -3 -8 1 -4 15 13 14 36 -1 30 -14 -5 -19 8 -8 20 9 8 34 -3 35 -17z
m-90 -207 c11 -5 17 -14 14 -18 -2 -5 4 -11 14 -14 19 -5 35 -54 20 -63 -5 -3
-26 3 -46 13 -28 13 -33 19 -20 21 10 2 28 -5 39 -15 21 -18 21 -18 7 5 -11
18 -21 22 -49 20 -25 -2 -35 1 -35 11 0 8 6 16 14 19 8 3 11 0 7 -7 -4 -6 -3
-11 3 -11 5 0 9 9 8 19 0 11 -5 17 -11 14 -5 -3 -6 -1 -2 5 9 15 12 15 37 1z
m96 -64 c-2 -5 -10 -10 -17 -10 -7 0 -15 5 -17 10 -2 6 6 11 17 11 11 0 19 -5
17 -11z m-33 -154 c3 -4 -3 -16 -14 -26 -18 -16 -23 -17 -45 -5 -19 10 -22 16
-14 27 13 14 65 18 73 4z m80 -10 c6 -9 -56 -61 -73 -61 -18 0 -13 22 11 47
22 23 52 30 62 14z m129 -35 c138 -61 224 -213 200 -351 -8 -45 -11 -50 -33
-47 -52 6 -430 208 -430 229 0 24 106 141 160 177 32 21 39 20 103 -8z m-693
-126 c0 -24 -51 -110 -65 -110 -24 0 -19 69 7 97 22 23 58 31 58 13z m-340
-82 c0 -12 -28 -10 -35 2 -3 5 -3 26 1 46 l7 37 13 -39 c8 -22 14 -42 14 -46z
m250 22 c0 -40 0 -40 -39 -40 -43 0 -55 9 -45 35 6 15 55 43 77 45 4 0 7 -18
7 -40z m-110 -25 c0 -9 -9 -15 -21 -15 -18 0 -19 2 -9 15 7 8 16 15 21 15 5 0
9 -7 9 -15z m767 -77 c60 -36 191 -101 276 -136 28 -12 29 -32 1 -32 -55 0
-279 106 -320 152 -20 22 -38 58 -29 58 3 0 35 -19 72 -42z"/>
<path d="M2275 4680 c-3 -6 1 -7 9 -4 18 7 21 14 7 14 -6 0 -13 -4 -16 -10z"/>
<path d="M1993 4205 c0 -8 4 -12 9 -9 5 3 6 10 3 15 -9 13 -12 11 -12 -6z"/>
<path d="M1992 4156 c-7 -16 -8 -26 -1 -26 12 0 22 25 17 41 -2 6 -9 0 -16
-15z"/>
<path d="M2460 3429 c-66 -40 -98 -79 -65 -79 18 0 19 -12 3 -28 -7 -7 -9 -12
-4 -12 11 0 36 27 36 39 0 6 4 11 9 11 17 0 41 -12 41 -21 0 -4 -6 -6 -14 -3
-7 3 -27 -6 -42 -20 -16 -14 -35 -30 -41 -36 -18 -15 -16 -30 2 -30 8 0 15 -7
15 -15 0 -25 14 -17 30 18 23 50 59 57 126 24 72 -36 141 -87 148 -111 2 -10
9 -15 14 -12 12 7 38 -22 28 -31 -3 -4 -12 -1 -18 5 -21 21 -29 13 -26 -25 3
-36 2 -37 -37 -45 -22 -4 -74 -5 -115 -3 -73 5 -74 4 -40 -9 81 -33 225 -9
258 43 9 14 25 35 35 46 29 32 57 92 57 123 0 22 -11 39 -41 67 -22 20 -43 34
-46 31 -3 -3 11 -25 32 -50 42 -51 42 -79 1 -131 l-24 -30 -29 23 c-87 69
-145 110 -196 137 -31 16 -57 35 -57 42 0 7 -10 13 -22 13 -20 0 -20 1 -4 19
38 42 105 30 218 -39 94 -58 85 -24 -10 37 -58 37 -142 73 -170 73 -9 0 -33
-10 -52 -21z"/>
<path d="M2218 3388 c2 -10 6 -18 7 -18 1 0 5 8 7 18 3 11 0 19 -7 19 -7 0
-10 -8 -7 -19z"/>
<path d="M2190 3354 c0 -16 5 -36 10 -44 6 -10 7 -2 3 25 -7 49 -13 58 -13 19z"/>
<path d="M2116 3115 c4 -8 8 -15 10 -15 2 0 4 7 4 15 0 8 -4 15 -10 15 -5 0
-7 -7 -4 -15z"/>
<path d="M2140 3086 c0 -2 7 -7 16 -10 8 -3 12 -2 9 4 -6 10 -25 14 -25 6z"/>
<path d="M2050 2960 c0 -5 5 -10 11 -10 5 0 7 5 4 10 -3 6 -8 10 -11 10 -2 0
-4 -4 -4 -10z"/>
<path d="M2890 4227 c0 -3 11 -12 24 -20 22 -15 24 -15 29 5 4 15 3 18 -5 10
-8 -8 -17 -8 -30 -1 -10 5 -18 8 -18 6z"/>
<path d="M2882 4196 c7 -8 17 -12 22 -9 4 3 2 9 -5 14 -22 13 -31 11 -17 -5z"/>
<path d="M2850 4145 c-7 -8 -8 -15 -2 -15 5 0 15 7 22 15 7 8 8 15 2 15 -5 0
-15 -7 -22 -15z"/>
<path d="M2790 4062 c0 -6 -8 -13 -17 -15 -16 -4 -16 -5 -1 -6 18 -1 34 16 24
26 -3 4 -6 1 -6 -5z"/>
<path d="M2783 4016 c-25 -24 -30 -51 -10 -62 6 -4 9 -4 5 1 -4 4 2 23 13 42
26 41 22 48 -8 19z"/>
<path d="M2731 3953 c-1 -6 -4 -20 -7 -30 -5 -17 -5 -17 6 0 6 10 9 23 6 30
-3 9 -5 9 -5 0z"/>
<path d="M2701 3894 c0 -11 3 -14 6 -6 3 7 2 16 -1 19 -3 4 -6 -2 -5 -13z"/>
<path d="M2635 3790 c3 -5 8 -10 11 -10 2 0 4 5 4 10 0 6 -5 10 -11 10 -5 0
-7 -4 -4 -10z"/>
<path d="M2672 3770 c0 -14 2 -19 5 -12 2 6 2 18 0 25 -3 6 -5 1 -5 -13z"/>
<path d="M2691 3754 c0 -11 3 -14 6 -6 3 7 2 16 -1 19 -3 4 -6 -2 -5 -13z"/>
<path d="M2684 3706 c-3 -8 -4 -23 -2 -33 3 -11 6 -6 9 15 6 34 2 42 -7 18z"/>
<path d="M1605 2110 c3 -5 14 -10 23 -10 15 0 15 2 2 10 -20 13 -33 13 -25 0z"/>
<path d="M1390 2000 c-8 -5 -12 -11 -9 -14 2 -3 11 -1 19 4 8 5 12 11 9 14 -2
3 -11 1 -19 -4z"/>
<path d="M1340 1965 c-7 -9 -8 -15 -2 -15 5 0 12 7 16 15 3 8 4 15 2 15 -2 0
-9 -7 -16 -15z"/>
<path d="M1400 1949 c0 -5 5 -7 10 -4 6 3 10 8 10 11 0 2 -4 4 -10 4 -5 0 -10
-5 -10 -11z"/>
<path d="M1320 1934 c0 -13 18 -39 24 -34 2 3 -2 14 -10 24 -8 11 -14 16 -14
10z"/>
<path d="M1350 1931 c0 -6 5 -13 10 -16 6 -3 10 1 10 9 0 9 -4 16 -10 16 -5 0
-10 -4 -10 -9z"/>
<path d="M1325 1810 c-3 -5 -1 -10 4 -10 6 0 11 5 11 10 0 6 -2 10 -4 10 -3 0
-8 -4 -11 -10z"/>
<path d="M1310 1748 c0 -16 5 -28 10 -28 13 0 13 20 0 40 -8 12 -10 9 -10 -12z"/>
<path d="M1260 1710 c0 -5 5 -10 11 -10 5 0 7 5 4 10 -3 6 -8 10 -11 10 -2 0
-4 -4 -4 -10z"/>
<path d="M1311 1668 c0 -14 -7 -29 -13 -31 -10 -4 -10 -6 0 -6 16 -1 25 22 19
46 -3 12 -5 9 -6 -9z"/>
<path d="M1345 1541 c-3 -6 1 -14 9 -17 9 -3 16 -12 16 -20 0 -8 5 -14 10 -14
16 0 12 19 -9 41 -12 13 -21 17 -26 10z"/>
<path d="M1400 1530 c0 -5 5 -10 11 -10 5 0 7 5 4 10 -3 6 -8 10 -11 10 -2 0
-4 -4 -4 -10z"/>
<path d="M1410 1491 c-15 -30 -12 -33 10 -11 22 22 25 30 10 30 -5 0 -14 -9
-20 -19z"/>
<path d="M1533 1413 c4 -3 1 -13 -6 -22 -10 -14 -10 -14 4 -4 9 7 19 10 23 6
4 -4 4 0 0 10 -3 9 -11 17 -17 17 -6 0 -7 -3 -4 -7z"/>
<path d="M1600 1408 c0 -10 0 -21 -1 -25 0 -4 5 -9 13 -11 9 -2 8 0 -2 7 -12
8 -8 11 20 12 28 1 30 3 10 6 -14 3 -28 10 -32 17 -5 7 -8 5 -8 -6z"/>
<path d="M1688 1373 c6 -2 18 -2 25 0 6 3 1 5 -13 5 -14 0 -19 -2 -12 -5z"/>
<path d="M2322 1850 c-20 -18 -27 -30 -18 -30 16 0 56 38 56 52 0 11 -1 11
-38 -22z"/>
<path d="M2656 1164 c-12 -31 -6 -92 9 -98 17 -6 20 9 4 20 -7 4 -9 24 -6 50
5 46 3 54 -7 28z"/>
<path d="M2600 1140 c0 -5 5 -10 11 -10 5 0 7 5 4 10 -3 6 -8 10 -11 10 -2 0
-4 -4 -4 -10z"/>
<path d="M2680 1104 c0 -8 5 -12 10 -9 6 3 10 10 10 16 0 5 -4 9 -10 9 -5 0
-10 -7 -10 -16z"/>
<path d="M2670 1040 c0 -5 5 -10 11 -10 5 0 7 5 4 10 -3 6 -8 10 -11 10 -2 0
-4 -4 -4 -10z"/>
<path d="M2509 2466 c-14 -31 -14 -33 3 -28 12 3 18 14 18 33 0 16 -1 29 -2
29 -2 -1 -10 -16 -19 -34z"/>
<path d="M2071 1027 c-1 -20 -2 -23 -59 -134 -23 -46 -37 -83 -32 -83 6 0 10
-8 11 -17 0 -10 6 2 13 27 12 42 44 126 68 177 6 11 8 27 5 35 -4 9 -6 7 -6
-5z"/>
<path d="M1758 323 c7 -3 16 -2 19 1 4 3 -2 6 -13 5 -11 0 -14 -3 -6 -6z"/>
<path d="M1820 306 c34 -14 89 -21 78 -11 -6 6 -24 11 -78 19 l-35 6 35 -14z"/>
<path d="M1918 283 c7 -3 16 -2 19 1 4 3 -2 6 -13 5 -11 0 -14 -3 -6 -6z"/>
<path d="M2043 263 c9 -2 23 -2 30 0 6 3 -1 5 -18 5 -16 0 -22 -2 -12 -5z"/>
<path d="M2198 243 c12 -2 32 -2 45 0 12 2 2 4 -23 4 -25 0 -35 -2 -22 -4z"/>
<path d="M2598 243 c12 -2 30 -2 40 0 9 3 -1 5 -23 4 -22 0 -30 -2 -17 -4z"/>
<path d="M2488 233 c6 -2 18 -2 25 0 6 3 1 5 -13 5 -14 0 -19 -2 -12 -5z"/>
</g>
</svg>
