<svg xmlns="http://www.w3.org/2000/svg" xmlns:xlink="http://www.w3.org/1999/xlink" width="60" zoomAndPan="magnify" viewBox="0 0 375 374.999991" height="60" preserveAspectRatio="xMidYMid meet" version="1.0"><defs><g></g><clipPath id="d42593c3cf"><path d="M 0 0 L 375 0 L 375 367.589844 L 0 367.589844 Z M 0 0 " clip-rule="nonzero"></path></clipPath><clipPath id="350b924803"><path d="M 86.78125 -11.589844 L 404.6875 -11.589844 L 298.71875 367.589844 L -19.1875 367.589844 Z M 86.78125 -11.589844 " clip-rule="nonzero"></path></clipPath><clipPath id="f210dcda58"><path d="M 152 11.03125 L 163 11.03125 L 163 40 L 152 40 Z M 152 11.03125 " clip-rule="nonzero"></path></clipPath><clipPath id="1d1eabcaec"><path d="M 256 237 L 266 237 L 266 266.03125 L 256 266.03125 Z M 256 237 " clip-rule="nonzero"></path></clipPath><clipPath id="f4a97dcb16"><path d="M 62.59375 16.421875 L 302.894531 16.421875 L 302.894531 256.863281 L 62.59375 256.863281 Z M 62.59375 16.421875 " clip-rule="nonzero"></path></clipPath><clipPath id="00a402b865"><path d="M 59.144531 182 L 138 182 L 138 261 L 59.144531 261 Z M 59.144531 182 " clip-rule="nonzero"></path></clipPath><clipPath id="46a2b88b25"><path d="M 143 11.03125 L 172 11.03125 L 172 40 L 143 40 Z M 143 11.03125 " clip-rule="nonzero"></path></clipPath><clipPath id="6ac9a8a7f2"><path d="M 246 237 L 276 237 L 276 266.03125 L 246 266.03125 Z M 246 237 " clip-rule="nonzero"></path></clipPath></defs><g clip-path="url(#d42593c3cf)"><g clip-path="url(#350b924803)"><path fill="#ffffff" d="M -19.1875 -11.589844 L 404.425781 -11.589844 L 404.425781 367.589844 L -19.1875 367.589844 Z M -19.1875 -11.589844 " fill-opacity="1" fill-rule="nonzero"></path></g></g><path fill="#d8d4d3" d="M 291.414062 82.144531 C 285.84375 102.074219 275.742188 123.796875 257.664062 141.882812 C 253.320312 146.226562 248.507812 150.382812 243.359375 154.253906 C 225.800781 167.617188 204.746094 178.007812 186.429688 184.144531 C 180.910156 186.035156 175.621094 187.5 170.808594 188.539062 C 170.664062 187.828125 170.476562 187.214844 170.289062 186.554688 C 169.769531 184.523438 169.152344 182.539062 168.398438 180.652344 C 165.851562 173.945312 161.980469 167.855469 156.785156 162.660156 C 150.082031 155.953125 141.871094 151.46875 132.902344 149.152344 C 132.242188 148.964844 131.625 148.777344 130.917969 148.636719 C 131.957031 143.820312 133.417969 138.53125 135.308594 133.003906 C 141.445312 114.683594 151.832031 93.621094 165.191406 76.054688 C 169.058594 70.90625 173.214844 66.089844 177.558594 61.746094 C 195.636719 43.660156 217.351562 33.554688 237.273438 27.980469 C 255.679688 22.789062 272.628906 21.417969 283.863281 21.277344 C 292.5 21.136719 297.738281 21.65625 297.738281 21.65625 C 297.738281 21.65625 300.621094 49.5625 291.414062 82.144531 " fill-opacity="1" fill-rule="nonzero"></path><path fill="#e4e4e3" d="M 277.253906 77.425781 C 271.683594 97.351562 261.582031 119.074219 243.503906 137.160156 C 239.160156 141.503906 234.34375 145.660156 229.199219 149.53125 C 211.640625 162.898438 190.585938 173.285156 172.269531 179.425781 C 170.949219 179.847656 169.675781 180.273438 168.398438 180.652344 C 165.851562 173.945312 161.980469 167.855469 156.785156 162.660156 C 150.082031 155.953125 141.871094 151.46875 132.902344 149.152344 C 132.242188 148.964844 131.625 148.777344 130.917969 148.636719 C 131.957031 143.820312 133.417969 138.53125 135.308594 133.003906 C 141.445312 114.683594 151.832031 93.621094 165.191406 76.054688 C 169.058594 70.90625 173.214844 66.089844 177.558594 61.746094 C 195.636719 43.660156 217.351562 33.554688 237.273438 27.980469 C 255.679688 22.789062 272.628906 21.417969 283.863281 21.277344 C 284.285156 30.296875 284.285156 52.492188 277.253906 77.425781 " fill-opacity="1" fill-rule="nonzero"></path><path fill="#f5f6f5" d="M 156.6875 138.183594 L 147.917969 134.679688 C 149.199219 131.480469 150.585938 128.226562 152.078125 124.957031 L 160.664062 128.886719 C 159.234375 132.007812 157.910156 135.121094 156.6875 138.183594 " fill-opacity="1" fill-rule="nonzero"></path><path fill="#f5f6f5" d="M 164.644531 120.636719 L 156.238281 116.347656 C 161.78125 105.46875 168.019531 95.449219 174.78125 86.554688 L 176.753906 83.898438 C 179.09375 80.742188 180.503906 78.832031 184.246094 75.089844 L 190.921875 81.765625 C 187.675781 85.011719 186.632812 86.421875 184.347656 89.519531 L 182.3125 92.253906 C 175.875 100.71875 169.9375 110.257812 164.644531 120.636719 " fill-opacity="1" fill-rule="nonzero"></path><path fill="#e91c45" d="M 170.289062 186.554688 L 150.886719 195.289062 L 124.167969 168.5625 L 125.632812 165.304688 L 132.902344 149.152344 C 141.871094 151.46875 150.082031 155.953125 156.785156 162.660156 C 159.429688 165.304688 161.746094 168.234375 163.679688 171.300781 C 166.699219 176.023438 168.871094 181.125 170.289062 186.554688 " fill-opacity="1" fill-rule="nonzero"></path><path fill="#ee205c" d="M 165.566406 177.109375 L 146.167969 185.847656 L 125.632812 165.304688 L 132.902344 149.152344 C 141.871094 151.46875 150.082031 155.953125 156.785156 162.660156 C 159.429688 165.304688 161.746094 168.234375 163.679688 171.300781 C 164.433594 173.191406 165.046875 175.125 165.566406 177.109375 " fill-opacity="1" fill-rule="nonzero"></path><path fill="#e91c45" d="M 135.3125 132.988281 L 120.828125 118.496094 L 67.421875 138.53125 L 117.488281 75.085938 L 164.21875 75.085938 L 165.1875 76.054688 C 151.835938 93.617188 141.453125 114.6875 135.3125 132.988281 " fill-opacity="1" fill-rule="nonzero"></path><path fill="#e91c45" d="M 244.328125 201.972656 L 180.910156 252.058594 L 200.933594 198.632812 L 186.449219 184.140625 C 204.742188 178 225.804688 167.613281 243.359375 154.257812 L 244.328125 155.226562 L 244.328125 201.972656 " fill-opacity="1" fill-rule="nonzero"></path><path fill="#52c6ed" d="M 251.007812 108.496094 C 239.960938 119.546875 222.023438 119.546875 210.929688 108.496094 C 210.175781 107.742188 209.511719 106.984375 208.902344 106.183594 C 199.933594 95.039062 200.640625 78.699219 210.929688 68.40625 C 220.324219 59.054688 234.582031 57.636719 245.4375 64.105469 C 247.421875 65.238281 249.308594 66.703125 251.007812 68.40625 C 262.054688 79.453125 262.054688 97.398438 251.007812 108.496094 " fill-opacity="1" fill-rule="nonzero"></path><path fill="#5fcbe7" d="M 243.410156 101.882812 C 234.0625 111.28125 219.757812 112.699219 208.902344 106.183594 C 199.933594 95.039062 200.640625 78.699219 210.929688 68.40625 C 220.324219 59.054688 234.582031 57.636719 245.4375 64.105469 C 254.453125 75.25 253.746094 91.589844 243.410156 101.882812 " fill-opacity="1" fill-rule="nonzero"></path><path fill="#e91c45" d="M 291.414062 82.144531 L 237.273438 27.980469 C 258.5625 21.9375 277.914062 21.085938 288.675781 21.230469 C 294.386719 21.324219 297.738281 21.65625 297.738281 21.65625 C 297.738281 21.65625 300.621094 49.5625 291.414062 82.144531 " fill-opacity="1" fill-rule="nonzero"></path><path fill="#ee205c" d="M 281.972656 72.699219 L 237.273438 27.980469 C 258.5625 21.9375 277.914062 21.085938 288.675781 21.230469 C 288.867188 31.996094 288.015625 51.359375 281.972656 72.699219 " fill-opacity="1" fill-rule="nonzero"></path><path fill="#f14621" d="M 124.164062 235.363281 C 113.101562 246.425781 64.082031 255.398438 64.082031 255.398438 C 64.082031 255.398438 73.050781 206.359375 84.109375 195.292969 C 95.171875 184.230469 113.101562 184.230469 124.164062 195.292969 C 135.226562 206.359375 135.226562 224.296875 124.164062 235.363281 " fill-opacity="1" fill-rule="nonzero"></path><path fill="#f25a48" d="M 89.339844 230.125 C 92.371094 219.488281 95.492188 211.117188 97.691406 208.398438 C 99.867188 206.246094 102.675781 205.882812 104.136719 205.882812 C 105.597656 205.882812 108.410156 206.246094 110.816406 208.652344 C 114.496094 212.332031 114.496094 218.324219 110.816406 222.007812 C 108.285156 224.042969 99.921875 227.113281 89.339844 230.125 " fill-opacity="1" fill-rule="nonzero"></path><g clip-path="url(#f210dcda58)"><path fill="#f68714" d="M 162.027344 39.363281 L 152.585938 39.363281 L 152.585938 11.03125 L 162.027344 11.03125 L 162.027344 39.363281 " fill-opacity="1" fill-rule="nonzero"></path></g><path fill="#f68714" d="M 171.46875 29.917969 L 143.144531 29.917969 L 143.144531 20.472656 L 171.46875 20.472656 L 171.46875 29.917969 " fill-opacity="1" fill-rule="nonzero"></path><g clip-path="url(#1d1eabcaec)"><path fill="#f68714" d="M 265.875 266.03125 L 256.4375 266.03125 L 256.4375 237.695312 L 265.875 237.695312 L 265.875 266.03125 " fill-opacity="1" fill-rule="nonzero"></path></g><path fill="#f68714" d="M 275.316406 256.585938 L 246.996094 256.585938 L 246.996094 247.140625 L 275.316406 247.140625 L 275.316406 256.585938 " fill-opacity="1" fill-rule="nonzero"></path><path fill="#f68714" d="M 100.660156 58.253906 L 91.21875 58.253906 L 91.21875 48.808594 L 100.660156 48.808594 L 100.660156 58.253906 " fill-opacity="1" fill-rule="nonzero"></path><path fill="#f68714" d="M 298.921875 185.753906 L 289.480469 185.753906 L 289.480469 176.308594 L 298.921875 176.308594 L 298.921875 185.753906 " fill-opacity="1" fill-rule="nonzero"></path><path fill="#f68714" d="M 72.335938 176.308594 L 62.894531 176.308594 L 62.894531 166.863281 L 72.335938 166.863281 L 72.335938 176.308594 " fill-opacity="1" fill-rule="nonzero"></path><path fill="#f68714" d="M 157.304688 247.140625 L 147.863281 247.140625 L 147.863281 237.695312 L 157.304688 237.695312 L 157.304688 247.140625 " fill-opacity="1" fill-rule="nonzero"></path><g clip-path="url(#f4a97dcb16)"><path fill="#100f0d" d="M 254.34375 138.53125 C 250.207031 142.664062 245.558594 146.6875 240.503906 150.496094 C 224.785156 162.453125 204.539062 173.089844 184.941406 179.667969 C 181.199219 180.925781 177.589844 182.003906 174.160156 182.875 C 171.390625 173.808594 166.675781 165.898438 160.113281 159.332031 C 153.515625 152.738281 145.558594 148 136.578125 145.28125 C 137.449219 141.84375 138.527344 138.234375 139.789062 134.492188 C 146.363281 114.890625 156.992188 94.636719 168.960938 78.890625 C 172.753906 73.855469 176.773438 69.203125 180.910156 65.066406 C 195.449219 50.519531 213.980469 39.882812 235.964844 33.328125 L 286.074219 83.457031 C 279.523438 105.441406 268.886719 123.980469 254.34375 138.53125 Z M 191.269531 237.855469 L 205.355469 200.289062 C 206.003906 198.558594 205.582031 196.605469 204.273438 195.292969 L 195.046875 186.066406 C 210.640625 180.140625 226.277344 171.976562 239.605469 162.792969 L 239.605469 199.683594 Z M 151.898438 189.648438 L 129.808594 167.546875 L 135.476562 154.957031 C 142.335938 157.324219 148.398438 160.972656 153.441406 166.007812 C 158.449219 171.023438 162.085938 177.058594 164.484375 183.980469 Z M 119.175781 114.074219 L 81.617188 128.160156 L 119.777344 79.808594 L 156.652344 79.808594 C 147.472656 93.152344 139.3125 108.792969 133.390625 124.386719 L 124.164062 115.15625 C 122.859375 113.84375 120.90625 113.425781 119.175781 114.074219 Z M 293.292969 26.105469 C 293.625 33.824219 293.6875 51.945312 288.890625 72.917969 L 246.496094 30.507812 C 267.460938 25.703125 285.582031 25.769531 293.292969 26.105469 Z M 298.21875 16.960938 C 297.035156 16.835938 269.039062 14.101562 236.015625 23.425781 C 211.300781 30.339844 190.515625 42.101562 174.234375 58.390625 C 170.597656 62.027344 167.09375 66.097656 163.710938 70.367188 L 117.492188 70.367188 C 116.046875 70.367188 114.683594 71.023438 113.785156 72.160156 L 63.710938 135.601562 C 62.398438 137.265625 62.355469 139.601562 63.609375 141.3125 C 64.515625 142.558594 65.945312 143.25 67.421875 143.25 C 67.972656 143.25 68.535156 143.152344 69.074219 142.953125 L 119.640625 123.984375 L 129.964844 134.316406 C 128.484375 138.972656 127.214844 143.484375 126.328125 147.660156 C 126.078125 148.808594 126.316406 149.988281 126.898438 151 L 119.859375 166.644531 C 119.058594 168.433594 119.441406 170.53125 120.828125 171.921875 L 147.527344 198.632812 C 148.429688 199.535156 149.640625 200.015625 150.867188 200.015625 C 151.523438 200.015625 152.179688 199.878906 152.800781 199.601562 L 168.425781 192.566406 C 169.152344 192.988281 169.960938 193.238281 170.792969 193.238281 C 171.121094 193.238281 171.453125 193.203125 171.78125 193.128906 C 175.957031 192.242188 180.46875 190.972656 185.125 189.492188 L 195.449219 199.820312 L 176.488281 250.40625 C 175.746094 252.386719 176.414062 254.625 178.125 255.875 C 178.953125 256.484375 179.933594 256.785156 180.910156 256.785156 C 181.945312 256.785156 182.980469 256.441406 183.835938 255.769531 L 247.253906 205.679688 C 248.386719 204.777344 249.046875 203.414062 249.046875 201.96875 L 249.046875 155.730469 C 253.320312 152.34375 257.382812 148.84375 261.019531 145.207031 C 277.300781 128.917969 289.058594 108.125 295.972656 83.410156 C 305.28125 50.371094 302.554688 22.351562 302.433594 21.171875 C 302.203125 18.953125 300.441406 17.191406 298.21875 16.960938 " fill-opacity="1" fill-rule="nonzero"></path></g><path fill="#100f0d" d="M 147.917969 134.679688 L 156.6875 138.183594 C 157.910156 135.121094 159.234375 132.007812 160.664062 128.886719 L 152.078125 124.957031 C 150.585938 128.226562 149.199219 131.480469 147.917969 134.679688 " fill-opacity="1" fill-rule="nonzero"></path><path fill="#100f0d" d="M 176.753906 83.898438 L 174.78125 86.554688 C 168.019531 95.449219 161.78125 105.46875 156.238281 116.347656 L 164.644531 120.636719 C 169.9375 110.257812 175.875 100.71875 182.3125 92.253906 L 184.347656 89.519531 C 186.632812 86.421875 187.675781 85.011719 190.921875 81.765625 L 184.246094 75.089844 C 180.503906 78.832031 179.09375 80.742188 176.753906 83.898438 " fill-opacity="1" fill-rule="nonzero"></path><path fill="#100f0d" d="M 247.667969 105.136719 C 243.210938 109.597656 237.28125 112.054688 230.976562 112.054688 C 224.675781 112.054688 218.746094 109.597656 214.289062 105.136719 C 209.832031 100.679688 207.371094 94.746094 207.371094 88.445312 C 207.371094 82.136719 209.832031 76.207031 214.289062 71.746094 C 218.890625 67.144531 224.929688 64.839844 230.976562 64.839844 C 237.019531 64.839844 243.066406 67.144531 247.667969 71.746094 C 256.867188 80.953125 256.867188 95.933594 247.667969 105.136719 Z M 254.34375 65.066406 C 241.457031 52.183594 220.5 52.183594 207.613281 65.066406 C 201.371094 71.3125 197.933594 79.613281 197.933594 88.445312 C 197.933594 97.273438 201.371094 105.578125 207.613281 111.8125 C 213.851562 118.058594 222.148438 121.5 230.976562 121.5 C 239.804688 121.5 248.101562 118.058594 254.34375 111.8125 C 267.222656 98.929688 267.222656 77.957031 254.34375 65.066406 " fill-opacity="1" fill-rule="nonzero"></path><g clip-path="url(#00a402b865)"><path fill="#100f0d" d="M 120.828125 232.023438 C 114.371094 238.480469 88.652344 245.539062 70.066406 249.414062 C 73.9375 230.820312 80.996094 205.09375 87.449219 198.632812 C 92.050781 194.027344 98.09375 191.730469 104.136719 191.730469 C 110.179688 191.730469 116.230469 194.027344 120.828125 198.632812 C 130.03125 207.839844 130.03125 222.820312 120.828125 232.023438 Z M 80.773438 191.953125 C 69.007812 203.722656 60.382812 249.382812 59.441406 254.550781 C 59.160156 256.078125 59.648438 257.640625 60.746094 258.738281 C 61.640625 259.632812 62.839844 260.121094 64.082031 260.121094 C 64.363281 260.121094 64.648438 260.097656 64.929688 260.042969 C 70.097656 259.097656 115.738281 250.472656 127.503906 238.699219 C 140.382812 225.816406 140.382812 204.84375 127.503906 191.953125 C 114.617188 179.074219 93.660156 179.0625 80.773438 191.953125 " fill-opacity="1" fill-rule="nonzero"></path></g><path fill="#100f0d" d="M 107.667969 218.464844 C 106.59375 219.199219 103.230469 220.789062 96.453125 223.023438 C 98.714844 216.207031 100.375 212.765625 101.207031 211.582031 C 102.269531 210.683594 103.703125 210.609375 104.136719 210.609375 C 104.871094 210.609375 106.277344 210.789062 107.476562 211.992188 C 109.25 213.765625 109.3125 216.613281 107.667969 218.464844 Z M 104.136719 201.164062 C 102.378906 201.164062 97.910156 201.542969 94.375 205.042969 C 94.246094 205.164062 94.132812 205.289062 94.023438 205.429688 C 90.773438 209.445312 87.214844 220.371094 84.796875 228.828125 C 84.328125 230.472656 84.789062 232.25 86 233.464844 C 86.898438 234.363281 88.101562 234.84375 89.339844 234.84375 C 89.773438 234.84375 90.207031 234.785156 90.628906 234.667969 C 99.082031 232.257812 109.960938 228.75 113.769531 225.6875 C 113.90625 225.582031 114.035156 225.46875 114.15625 225.34375 C 119.671875 219.816406 119.671875 210.832031 114.152344 205.3125 C 110.542969 201.703125 106.328125 201.164062 104.136719 201.164062 " fill-opacity="1" fill-rule="nonzero"></path><g clip-path="url(#46a2b88b25)"><path fill="#100f0d" d="M 152.585938 11.03125 L 152.585938 20.472656 L 143.144531 20.472656 L 143.144531 29.917969 L 152.585938 29.917969 L 152.585938 39.363281 L 162.027344 39.363281 L 162.027344 29.917969 L 171.46875 29.917969 L 171.46875 20.472656 L 162.027344 20.472656 L 162.027344 11.03125 L 152.585938 11.03125 " fill-opacity="1" fill-rule="nonzero"></path></g><g clip-path="url(#6ac9a8a7f2)"><path fill="#100f0d" d="M 265.875 237.695312 L 256.4375 237.695312 L 256.4375 247.140625 L 246.996094 247.140625 L 246.996094 256.585938 L 256.4375 256.585938 L 256.4375 266.03125 L 265.875 266.03125 L 265.875 256.585938 L 275.316406 256.585938 L 275.316406 247.140625 L 265.875 247.140625 L 265.875 237.695312 " fill-opacity="1" fill-rule="nonzero"></path></g><path fill="#100f0d" d="M 91.21875 48.808594 L 91.21875 58.253906 L 100.660156 58.253906 L 100.660156 48.808594 L 91.21875 48.808594 " fill-opacity="1" fill-rule="nonzero"></path><path fill="#100f0d" d="M 289.480469 185.753906 L 298.921875 185.753906 L 298.921875 176.308594 L 289.480469 176.308594 L 289.480469 185.753906 " fill-opacity="1" fill-rule="nonzero"></path><path fill="#100f0d" d="M 62.894531 166.863281 L 62.894531 176.308594 L 72.335938 176.308594 L 72.335938 166.863281 L 62.894531 166.863281 " fill-opacity="1" fill-rule="nonzero"></path><path fill="#100f0d" d="M 147.863281 247.140625 L 157.304688 247.140625 L 157.304688 237.695312 L 147.863281 237.695312 L 147.863281 247.140625 " fill-opacity="1" fill-rule="nonzero"></path><g fill="#140821" fill-opacity="1"><g transform="translate(30.964157, 312.727187)"><g><path d="M 19.109375 -25.28125 L 25.25 -25.28125 L 25.25 0 L 19.109375 0 L 8.84375 -15.90625 L 8.84375 0 L 2.6875 0 L 2.6875 -25.28125 L 8.84375 -25.28125 L 19.109375 -9.375 Z M 19.109375 -25.28125 "></path></g></g></g><g fill="#140821" fill-opacity="1"><g transform="translate(58.0011, 312.727187)"><g><path d="M 2.6875 0 L 2.6875 -25.21875 L 19.109375 -25.21875 L 19.109375 -20.546875 L 8.84375 -20.546875 L 8.84375 -15.125 L 16.53125 -15.125 L 16.53125 -10.453125 L 8.84375 -10.453125 L 8.84375 0 Z M 2.6875 0 "></path></g></g></g><g fill="#140821" fill-opacity="1"><g transform="translate(77.749084, 312.727187)"><g><path d="M 0.96875 -20.546875 L 0.96875 -25.21875 L 20.875 -25.21875 L 20.875 -20.546875 L 13.96875 -20.546875 L 13.96875 0 L 7.828125 0 L 7.828125 -20.546875 Z M 0.96875 -20.546875 "></path></g></g></g><g fill="#140821" fill-opacity="1"><g transform="translate(98.68198, 312.727187)"><g><path d="M 2.6875 -25.21875 L 8.84375 -25.21875 L 8.84375 -4.671875 L 16.484375 -4.671875 L 16.484375 0 L 2.6875 0 Z M 2.6875 -25.21875 "></path></g></g></g><g fill="#140821" fill-opacity="1"><g transform="translate(114.982966, 312.727187)"><g><path d="M 14.90625 -6.359375 C 15.789062 -7.222656 16.234375 -8.441406 16.234375 -10.015625 C 16.234375 -11.597656 15.789062 -12.8125 14.90625 -13.65625 C 14.019531 -14.507812 13 -14.9375 11.84375 -14.9375 C 10.695312 -14.9375 9.679688 -14.503906 8.796875 -13.640625 C 7.910156 -12.785156 7.46875 -11.566406 7.46875 -9.984375 C 7.46875 -8.398438 7.910156 -7.179688 8.796875 -6.328125 C 9.679688 -5.484375 10.695312 -5.0625 11.84375 -5.0625 C 13 -5.0625 14.019531 -5.492188 14.90625 -6.359375 Z M 3.875 -2.625 C 2.101562 -4.539062 1.21875 -6.992188 1.21875 -9.984375 C 1.21875 -12.972656 2.101562 -15.429688 3.875 -17.359375 C 5.644531 -19.296875 7.804688 -20.265625 10.359375 -20.265625 C 12.910156 -20.265625 14.867188 -19.316406 16.234375 -17.421875 L 16.234375 -20.046875 L 22.375 -20.046875 L 22.375 0 L 16.234375 0 L 16.234375 -2.90625 C 14.753906 -0.800781 12.765625 0.25 10.265625 0.25 C 7.773438 0.25 5.644531 -0.707031 3.875 -2.625 Z M 3.875 -2.625 "></path></g></g></g><g fill="#140821" fill-opacity="1"><g transform="translate(139.147416, 312.727187)"><g><path d="M 16.3125 -20.046875 L 22.453125 -20.046875 L 22.453125 0 L 16.3125 0 L 16.3125 -2.953125 C 15.039062 -0.835938 13.015625 0.21875 10.234375 0.21875 C 7.941406 0.21875 6.082031 -0.546875 4.65625 -2.078125 C 3.226562 -3.609375 2.515625 -5.691406 2.515625 -8.328125 L 2.515625 -20.046875 L 8.625 -20.046875 L 8.625 -9.15625 C 8.625 -7.863281 8.960938 -6.863281 9.640625 -6.15625 C 10.328125 -5.445312 11.269531 -5.09375 12.46875 -5.09375 C 13.664062 -5.09375 14.601562 -5.445312 15.28125 -6.15625 C 15.96875 -6.863281 16.3125 -7.863281 16.3125 -9.15625 Z M 16.3125 -20.046875 "></path></g></g></g><g fill="#140821" fill-opacity="1"><g transform="translate(163.383678, 312.727187)"><g><path d="M 8.84375 -20.046875 L 8.84375 -17.09375 C 10.101562 -19.207031 12.125 -20.265625 14.90625 -20.265625 C 17.207031 -20.265625 19.066406 -19.492188 20.484375 -17.953125 C 21.910156 -16.421875 22.625 -14.335938 22.625 -11.703125 L 22.625 0 L 16.53125 0 L 16.53125 -10.890625 C 16.53125 -12.179688 16.1875 -13.175781 15.5 -13.875 C 14.8125 -14.582031 13.867188 -14.9375 12.671875 -14.9375 C 11.484375 -14.9375 10.546875 -14.582031 9.859375 -13.875 C 9.179688 -13.175781 8.84375 -12.179688 8.84375 -10.890625 L 8.84375 0 L 2.6875 0 L 2.6875 -20.046875 Z M 8.84375 -20.046875 "></path></g></g></g><g fill="#140821" fill-opacity="1"><g transform="translate(187.61994, 312.727187)"><g><path d="M 4 -2.546875 C 2.144531 -4.421875 1.21875 -6.910156 1.21875 -10.015625 C 1.21875 -13.128906 2.144531 -15.613281 4 -17.46875 C 5.863281 -19.332031 8.265625 -20.265625 11.203125 -20.265625 C 13.648438 -20.265625 15.722656 -19.65625 17.421875 -18.4375 C 19.117188 -17.226562 20.242188 -15.5 20.796875 -13.25 L 14.15625 -13.25 C 13.582031 -14.445312 12.640625 -15.046875 11.328125 -15.046875 C 10.023438 -15.046875 9.054688 -14.582031 8.421875 -13.65625 C 7.785156 -12.738281 7.46875 -11.523438 7.46875 -10.015625 C 7.46875 -8.515625 7.785156 -7.300781 8.421875 -6.375 C 9.054688 -5.457031 9.984375 -5 11.203125 -5 C 11.972656 -5 12.570312 -5.128906 13 -5.390625 C 13.4375 -5.648438 13.820312 -6.117188 14.15625 -6.796875 L 20.796875 -6.796875 C 20.242188 -4.640625 19.101562 -2.925781 17.375 -1.65625 C 15.65625 -0.382812 13.597656 0.25 11.203125 0.25 C 8.265625 0.25 5.863281 -0.679688 4 -2.546875 Z M 4 -2.546875 "></path></g></g></g><g fill="#140821" fill-opacity="1"><g transform="translate(208.265584, 312.727187)"><g><path d="M 8.84375 -26.578125 L 8.84375 -17.09375 C 10.101562 -19.207031 12.125 -20.265625 14.90625 -20.265625 C 17.207031 -20.265625 19.066406 -19.492188 20.484375 -17.953125 C 21.910156 -16.421875 22.625 -14.335938 22.625 -11.703125 L 22.625 0 L 16.53125 0 L 16.53125 -10.890625 C 16.53125 -12.179688 16.1875 -13.175781 15.5 -13.875 C 14.8125 -14.582031 13.867188 -14.9375 12.671875 -14.9375 C 11.484375 -14.9375 10.546875 -14.582031 9.859375 -13.875 C 9.179688 -13.175781 8.84375 -12.179688 8.84375 -10.890625 L 8.84375 0 L 2.6875 0 L 2.6875 -26.578125 Z M 8.84375 -26.578125 "></path></g></g></g><g fill="#140821" fill-opacity="1"><g transform="translate(232.501857, 312.727187)"><g><path d="M 7.96875 -3.359375 C 7.96875 -2.410156 7.644531 -1.613281 7 -0.96875 C 6.351562 -0.320312 5.554688 0 4.609375 0 C 3.671875 0 2.875 -0.320312 2.21875 -0.96875 C 1.570312 -1.613281 1.25 -2.410156 1.25 -3.359375 C 1.25 -4.304688 1.570312 -5.101562 2.21875 -5.75 C 2.875 -6.394531 3.671875 -6.71875 4.609375 -6.71875 C 5.554688 -6.71875 6.351562 -6.394531 7 -5.75 C 7.644531 -5.101562 7.96875 -4.304688 7.96875 -3.359375 Z M 7.96875 -3.359375 "></path></g></g></g><g fill="#140821" fill-opacity="1"><g transform="translate(240.831691, 312.727187)"><g><path d="M 31.25 -25.21875 L 31.25 0 L 25.109375 0 L 25.109375 -14.21875 L 19.25 0 L 14.6875 0 L 8.84375 -14.21875 L 8.84375 0 L 2.6875 0 L 2.6875 -25.21875 L 9.734375 -25.21875 L 16.984375 -7.828125 L 24.21875 -25.21875 Z M 31.25 -25.21875 "></path></g></g></g><g fill="#140821" fill-opacity="1"><g transform="translate(273.864968, 312.727187)"><g><path d="M 11.203125 0.25 C 8.285156 0.25 5.890625 -0.6875 4.015625 -2.5625 C 2.148438 -4.445312 1.21875 -6.945312 1.21875 -10.0625 C 1.21875 -13.175781 2.144531 -15.65625 4 -17.5 C 5.863281 -19.34375 8.265625 -20.265625 11.203125 -20.265625 C 14.148438 -20.265625 16.59375 -19.351562 18.53125 -17.53125 C 20.476562 -15.707031 21.453125 -13.179688 21.453125 -9.953125 C 21.453125 -9.253906 21.398438 -8.609375 21.296875 -8.015625 L 7.5 -8.015625 C 7.625 -7.128906 8.019531 -6.40625 8.6875 -5.84375 C 9.363281 -5.28125 10.085938 -5 10.859375 -5 C 11.640625 -5 12.222656 -5.070312 12.609375 -5.21875 C 12.992188 -5.375 13.273438 -5.53125 13.453125 -5.6875 C 13.628906 -5.84375 13.863281 -6.101562 14.15625 -6.46875 L 20.796875 -6.46875 C 20.222656 -4.457031 19.070312 -2.832031 17.34375 -1.59375 C 15.625 -0.363281 13.578125 0.25 11.203125 0.25 Z M 15.046875 -11.859375 C 14.953125 -12.785156 14.546875 -13.539062 13.828125 -14.125 C 13.109375 -14.71875 12.257812 -15.015625 11.28125 -15.015625 C 10.300781 -15.015625 9.472656 -14.71875 8.796875 -14.125 C 8.128906 -13.539062 7.710938 -12.785156 7.546875 -11.859375 Z M 15.046875 -11.859375 "></path></g></g></g></svg>