<?xml version="1.0" standalone="no"?>
<svg xmlns:xlink="http://www.w3.org/1999/xlink" id="wave" style="transform:rotate(0deg); transition: 0.3s" viewBox="0 0 1440 490" version="1.1" xmlns="http://www.w3.org/2000/svg"><defs><linearGradient id="sw-gradient-0" x1="0" x2="0" y1="1" y2="0"><stop stop-color="rgba(131.389, 62, 243, 1)" offset="0%"/><stop stop-color="rgba(88.008, 11, 255, 1)" offset="100%"/></linearGradient></defs><path style="transform:translate(0, 0px); opacity:1" fill="url(#sw-gradient-0)" d="M0,245L26.7,220.5C53.3,196,107,147,160,130.7C213.3,114,267,131,320,122.5C373.3,114,427,82,480,89.8C533.3,98,587,147,640,171.5C693.3,196,747,196,800,204.2C853.3,212,907,229,960,261.3C1013.3,294,1067,343,1120,302.2C1173.3,261,1227,131,1280,106.2C1333.3,82,1387,163,1440,196C1493.3,229,1547,212,1600,236.8C1653.3,261,1707,327,1760,302.2C1813.3,278,1867,163,1920,122.5C1973.3,82,2027,114,2080,147C2133.3,180,2187,212,2240,228.7C2293.3,245,2347,245,2400,269.5C2453.3,294,2507,343,2560,334.8C2613.3,327,2667,261,2720,236.8C2773.3,212,2827,229,2880,220.5C2933.3,212,2987,180,3040,147C3093.3,114,3147,82,3200,98C3253.3,114,3307,180,3360,245C3413.3,310,3467,376,3520,392C3573.3,408,3627,376,3680,334.8C3733.3,294,3787,245,3813,220.5L3840,196L3840,490L3813.3,490C3786.7,490,3733,490,3680,490C3626.7,490,3573,490,3520,490C3466.7,490,3413,490,3360,490C3306.7,490,3253,490,3200,490C3146.7,490,3093,490,3040,490C2986.7,490,2933,490,2880,490C2826.7,490,2773,490,2720,490C2666.7,490,2613,490,2560,490C2506.7,490,2453,490,2400,490C2346.7,490,2293,490,2240,490C2186.7,490,2133,490,2080,490C2026.7,490,1973,490,1920,490C1866.7,490,1813,490,1760,490C1706.7,490,1653,490,1600,490C1546.7,490,1493,490,1440,490C1386.7,490,1333,490,1280,490C1226.7,490,1173,490,1120,490C1066.7,490,1013,490,960,490C906.7,490,853,490,800,490C746.7,490,693,490,640,490C586.7,490,533,490,480,490C426.7,490,373,490,320,490C266.7,490,213,490,160,490C106.7,490,53,490,27,490L0,490Z"/></svg>